<svg xmlns="http://www.w3.org/2000/svg" width="3.1rem" height="2.6rem" viewBox="0 0 31 26" fill="none">
  <path fill-rule="evenodd" clip-rule="evenodd" d="M5.50005 0C3.29091 0 1.50005 1.79086 1.50005 4V10.5L0.300049 11.4V14.6L1.50005 15.5V22C1.50005 24.2091 3.29091 26 5.50005 26H7.50005H11.5V22H15.5V18H19.5V14H23.5V10H15.5V14H11.5V18H7.50005V22H5.50005V15.5C5.50005 14.5814 5.18448 13.7019 4.6226 13C5.18448 12.2981 5.50005 11.4186 5.50005 10.5V4H7.50005V0H5.50005ZM29.5001 22C29.5 24.2091 27.7092 26 25.5 26H23.5L23.5001 22H25.5001L25.5 15.5C25.5001 14.5814 25.8156 13.7019 26.3775 13C25.8156 12.2981 25.5001 11.4186 25.5001 10.5V4H23.5001V0H25.5001C27.7092 0 29.5001 1.79086 29.5001 4V10.5L30.7001 11.4V14.6L29.5001 15.5V22Z" fill="white"/>
</svg>
