<svg xmlns="http://www.w3.org/2000/svg" width="1.8rem" height="1.8rem" viewBox="0 0 18 18" fill="none">
  <path d="M11.8162 10.6914H11.2237L11.0137 10.4889C11.7487 9.63391 12.1912 8.52391 12.1912 7.31641C12.1912 4.62391 10.0087 2.44141 7.31616 2.44141C4.62366 2.44141 2.44116 4.62391 2.44116 7.31641C2.44116 10.0089 4.62366 12.1914 7.31616 12.1914C8.52366 12.1914 9.63366 11.7489 10.4887 11.0139L10.6912 11.2239V11.8164L14.4412 15.5589L15.5587 14.4414L11.8162 10.6914ZM7.31616 10.6914C5.44866 10.6914 3.94116 9.18391 3.94116 7.31641C3.94116 5.44891 5.44866 3.94141 7.31616 3.94141C9.18366 3.94141 10.6912 5.44891 10.6912 7.31641C10.6912 9.18391 9.18366 10.6914 7.31616 10.6914Z" fill="white"/>
</svg>
