<svg width="192" height="111" viewBox="0 0 192 111" fill="none" xmlns="http://www.w3.org/2000/svg">
<path fill-rule="evenodd" clip-rule="evenodd" d="M23.5534 3.66344C30.7147 0.549817 38.4456 0 41.9932 0C45.6531 0 52.0359 0.577113 58.0709 3.59458C64.4772 6.79777 70.4768 12.8166 71.9128 22.8686C72.6215 27.8301 71.9143 32.4286 69.9046 36.5816C67.9523 40.6161 64.9788 43.805 61.7832 46.4038C58.127 49.3773 53.5998 52.0048 48.9366 54.4439C49.7885 55.2064 50.6535 55.974 51.5302 56.7461C57.1474 61.6925 63.0367 66.6455 68.8944 71.4758C72.5753 64.9582 74.8484 58.1371 76.3355 53.6749L76.4037 53.4702L91.5826 58.5298C91.5137 58.7368 91.4416 58.9539 91.3663 59.1806C89.785 63.9427 86.7863 72.9738 81.4269 81.7047C82.0231 82.1882 82.6165 82.6694 83.2067 83.1481C89.7373 88.4436 95.8827 93.4269 101.161 97.8929L90.8256 110.107C86.1013 106.11 80.1845 101.307 73.7492 96.0841C72.9914 95.469 72.2264 94.8481 71.4553 94.222C67.2433 98.3499 62.7671 101.527 57.8036 103.783C50.9724 106.888 43.7644 108 35.9932 108C27.5933 108 19.0115 105.627 12.3056 101.156C5.57447 96.669 -0.00683594 89.4604 -0.00683594 80C-0.00683594 70.9455 4.64565 63.9499 10.6414 58.5536C13.8797 55.6392 17.7227 52.9921 21.8766 50.5253C20.7904 49.355 19.7551 48.2011 18.7776 47.0673C15.8663 43.6901 13.2992 40.2977 11.4214 37.0176C9.62837 33.8854 7.99316 30.0565 7.99316 26C7.99316 13.6487 16.127 6.89228 23.5534 3.66344ZM36.589 42.763C43.0168 39.552 48.0589 36.942 51.688 33.9906C53.7399 32.3219 54.8902 30.877 55.5023 29.6122C56.057 28.4659 56.3547 27.0996 56.0736 25.1314C55.5096 21.1834 53.5091 19.2022 50.9155 17.9054C47.9504 16.4229 44.3332 16 41.9932 16C39.5408 16 34.2716 16.4502 29.933 18.3366C25.8593 20.1077 23.9932 22.3513 23.9932 26C23.9932 25.995 23.9936 25.9977 23.9952 26.0082C24.0119 26.1166 24.1571 27.0596 25.3071 29.0684C26.484 31.1242 28.3388 33.6536 30.8962 36.6202C32.5762 38.569 34.4865 40.6234 36.589 42.763ZM33.6973 62.2112C28.5506 65.0178 24.3985 67.6981 21.3449 70.4464C17.3407 74.0501 15.9932 77.0545 15.9932 80C15.9932 82.5396 17.4119 85.331 21.1808 87.8436C24.9748 90.373 30.393 92 35.9932 92C42.222 92 47.014 91.112 51.1827 89.2171C53.77 88.041 56.3287 86.3808 58.9589 84.0145C52.8123 78.946 46.6478 73.766 40.9561 68.7539C38.4748 66.5689 36.0427 64.3818 33.6973 62.2112Z" fill="#5B4EF5"/>
<path fill-rule="evenodd" clip-rule="evenodd" d="M113.553 3.66344C120.715 0.549817 128.446 0 131.993 0C135.653 0 142.036 0.577113 148.071 3.59458C154.477 6.79777 160.477 12.8166 161.913 22.8686C162.622 27.8301 161.914 32.4286 159.905 36.5816C157.952 40.6161 154.979 43.805 151.783 46.4038C148.127 49.3773 143.6 52.0048 138.937 54.4439C139.788 55.2064 140.653 55.974 141.53 56.7461C147.147 61.6925 153.037 66.6455 158.894 71.4758C162.575 64.9582 164.848 58.1371 166.335 53.6749L166.404 53.4702L181.583 58.5298C181.514 58.7368 181.442 58.9539 181.366 59.1806C179.785 63.9427 176.786 72.9738 171.427 81.7047C172.023 82.1882 172.616 82.6694 173.207 83.1481C179.737 88.4436 185.883 93.4269 191.161 97.8929L180.826 110.107C176.101 106.11 170.184 101.307 163.749 96.0841C162.991 95.469 162.226 94.8481 161.455 94.222C157.243 98.3499 152.767 101.527 147.804 103.783C140.972 106.888 133.764 108 125.993 108C117.593 108 109.012 105.627 102.306 101.156C95.5745 96.669 89.9932 89.4604 89.9932 80C89.9932 70.9455 94.6457 63.9499 100.641 58.5536C103.88 55.6392 107.723 52.9921 111.877 50.5253C110.79 49.355 109.755 48.2011 108.778 47.0673C105.866 43.6901 103.299 40.2977 101.421 37.0176C99.6284 33.8854 97.9932 30.0565 97.9932 26C97.9932 13.6487 106.127 6.89228 113.553 3.66344ZM126.589 42.763C133.017 39.552 138.059 36.942 141.688 33.9906C143.74 32.3219 144.89 30.877 145.502 29.6122C146.057 28.4659 146.355 27.0996 146.074 25.1314C145.51 21.1834 143.509 19.2022 140.915 17.9054C137.95 16.4229 134.333 16 131.993 16C129.541 16 124.272 16.4502 119.933 18.3366C115.859 20.1077 113.993 22.3513 113.993 26C113.993 25.995 113.994 25.9977 113.995 26.0082C114.012 26.1166 114.157 27.0596 115.307 29.0684C116.484 31.1242 118.339 33.6536 120.896 36.6202C122.576 38.569 124.487 40.6234 126.589 42.763ZM123.697 62.2112C118.551 65.0178 114.398 67.6981 111.345 70.4464C107.341 74.0501 105.993 77.0545 105.993 80C105.993 82.5396 107.412 85.331 111.181 87.8436C114.975 90.373 120.393 92 125.993 92C132.222 92 137.014 91.112 141.183 89.2171C143.77 88.041 146.329 86.3808 148.959 84.0145C142.812 78.946 136.648 73.766 130.956 68.7539C128.475 66.5689 126.043 64.3818 123.697 62.2112Z" fill="#5B4EF5"/>
</svg>
