<svg width="88" height="108" viewBox="0 0 88 108" fill="none" xmlns="http://www.w3.org/2000/svg">
<mask id="mask0_1306_16657" style="mask-type:alpha" maskUnits="userSpaceOnUse" x="-1" y="0" width="89" height="108">
<rect x="1.99316" y="2" width="84" height="104" fill="#D9D9D9" stroke="#828288" stroke-width="4"/>
</mask>
<g mask="url(#mask0_1306_16657)">
<path fill-rule="evenodd" clip-rule="evenodd" d="M62.0779 121.834C62.0762 121.836 62.0745 121.838 55.9932 116.641C49.9118 111.443 49.9103 111.444 49.909 111.446L49.9305 111.42C49.959 111.386 50.0092 111.326 50.0796 111.24C50.2206 111.069 50.4424 110.795 50.7336 110.424C51.3164 109.682 52.1749 108.555 53.2177 107.085C55.3073 104.139 58.1142 99.8457 60.922 94.5392C66.585 83.8361 71.9932 69.4965 71.9932 54.0006C71.9932 38.5047 66.585 24.165 60.922 13.4619C58.1143 8.15537 55.3073 3.86244 53.2177 0.916043C52.1749 -0.554325 51.3164 -1.68134 50.7336 -2.42312C50.4424 -2.7938 50.2206 -3.06759 50.0797 -3.23925C50.0092 -3.32507 49.959 -3.38529 49.9305 -3.41926L49.909 -3.44497C49.9103 -3.44338 49.9118 -3.44167 55.9932 -8.63944C62.0746 -13.8372 62.0762 -13.8353 62.0779 -13.8333L62.0913 -13.8176L62.1168 -13.7875L62.1935 -13.6964C62.2559 -13.622 62.3404 -13.5203 62.4458 -13.392C62.6564 -13.1355 62.9502 -12.7723 63.3152 -12.3076C64.0449 -11.3788 65.0615 -10.0421 66.2686 -8.33992C68.679 -4.94132 71.8721 -0.0542618 75.0644 5.97918C81.4014 17.9561 87.9932 34.9364 87.9932 54.0006C87.9932 73.0647 81.4014 90.045 75.0644 102.022C71.8721 108.055 68.679 112.942 66.2686 116.341C65.0614 118.043 64.0449 119.38 63.3152 120.309C62.9502 120.773 62.6564 121.137 62.4457 121.393C62.3404 121.521 62.2558 121.623 62.1935 121.698L62.1168 121.789L62.0913 121.819L62.0779 121.834Z" fill="#828288" fill-opacity="0.3"/>
<path fill-rule="evenodd" clip-rule="evenodd" d="M25.9084 -13.8339C25.9101 -13.8359 25.9118 -13.8378 31.9932 -8.64008C38.0745 -3.44231 38.076 -3.44401 38.0774 -3.44561L38.0558 -3.4199C38.0273 -3.38592 37.9771 -3.3257 37.9067 -3.23989C37.7657 -3.06822 37.5439 -2.79443 37.2527 -2.42375C36.6699 -1.68197 35.8114 -0.554954 34.7686 0.915414C32.679 3.8618 29.8721 8.15474 27.0644 13.4613C21.4014 24.1644 15.9932 38.504 15.9932 53.9999C15.9932 69.4958 21.4014 83.8354 27.0644 94.5385C29.8721 99.8451 32.679 104.138 34.7686 107.084C35.8114 108.555 36.6699 109.682 37.2527 110.424C37.5439 110.794 37.7657 111.068 37.9067 111.24C37.9771 111.326 38.0273 111.386 38.0558 111.42L38.0774 111.445C38.076 111.444 38.0745 111.442 31.9932 116.64C25.9118 121.838 25.9101 121.836 25.9084 121.834L25.895 121.818L25.8695 121.788L25.7928 121.697C25.7305 121.622 25.6459 121.521 25.5406 121.393C25.33 121.136 25.0362 120.773 24.6711 120.308C23.9414 119.379 22.9249 118.043 21.7177 116.34C19.3073 112.942 16.1142 108.055 12.922 102.021C6.58496 90.0444 -0.00683594 73.064 -0.00683594 53.9999C-0.00683594 34.9358 6.58496 17.9554 12.922 5.97854C16.1142 -0.0548935 19.3073 -4.94196 21.7177 -8.34057C22.9249 -10.0427 23.9414 -11.3794 24.6711 -12.3083C25.0362 -12.7729 25.33 -13.1362 25.5406 -13.3927C25.6459 -13.521 25.7305 -13.6226 25.7928 -13.697L25.8695 -13.7881L25.895 -13.8182L25.9084 -13.8339Z" fill="#828288" fill-opacity="0.3"/>
</g>
</svg>
