<svg width="608" height="144" viewBox="0 0 608 144" fill="none" xmlns="http://www.w3.org/2000/svg">
<rect width="608" height="144" rx="72" fill="#828288" fill-opacity="0.3"/>
<path fill-rule="evenodd" clip-rule="evenodd" d="M102 80H64V68H102V80Z" fill="#FFBDF2"/>
<path fill-rule="evenodd" clip-rule="evenodd" d="M126.036 59.6749C130.283 54.9449 136.805 52 146 52C154.628 52 160.631 55.2043 164.183 60.3347C167.455 65.0608 168 70.5198 168 74V80H132.193C132.453 81.4925 133.026 83.4012 134.194 85.1008C135.744 87.3552 138.829 90 146 90C152.2 90 155.164 86.255 156.633 83.3167L167.367 88.6833C164.836 93.745 158.572 102 146 102C135.171 102 128.256 97.6448 124.306 91.8992C120.626 86.5465 120 80.701 120 78L120 77.97C120 77.0662 120 75.3517 120.245 73.2918C120.682 69.6094 121.968 64.2048 126.036 59.6749ZM134.701 68H154.812C154.663 67.7067 154.498 67.4276 154.317 67.1653C153.369 65.7957 151.372 64 146 64C139.524 64 136.514 65.9667 134.964 67.6926C134.874 67.7933 134.786 67.8958 134.701 68Z" fill="#FFBDF2"/>
<path fill-rule="evenodd" clip-rule="evenodd" d="M58 102V44H70V102H58Z" fill="#FFBDF2"/>
<path fill-rule="evenodd" clip-rule="evenodd" d="M102 102V44H114V102H102Z" fill="#FFBDF2"/>
<path fill-rule="evenodd" clip-rule="evenodd" d="M178 102V44H190V102H178Z" fill="#FFBDF2"/>
<path fill-rule="evenodd" clip-rule="evenodd" d="M202 102V44H214V102H202Z" fill="#FFBDF2"/>
<path fill-rule="evenodd" clip-rule="evenodd" d="M482 102V44H494V102H482Z" fill="#FFBDF2"/>
<path fill-rule="evenodd" clip-rule="evenodd" d="M538 102V44H550V102H538Z" fill="#FFBDF2"/>
<path fill-rule="evenodd" clip-rule="evenodd" d="M507.493 60.5748C511.058 55.9383 516.666 52 524 52C533.676 52 540.634 54.9063 544.982 60.1852C549.146 65.2408 550 71.3949 550 76C550 81.9614 548.432 88.4825 544.104 93.6172C539.626 98.9283 532.831 102 524 102C516.028 102 510.14 98.526 506.508 93.0782C503.106 87.9755 502 81.6491 502 76C502 70.8863 504 65.1185 507.493 60.5748ZM517.007 67.8885C515 70.4992 514 73.7315 514 76C514 80.3509 514.894 84.0245 516.492 86.4218C517.86 88.474 519.972 90 524 90C529.879 90 533.084 88.0717 534.929 85.8828C536.923 83.5175 538 80.0386 538 76C538 72.6051 537.321 69.7592 535.72 67.8148C534.302 66.0937 531.259 64 524 64C521.334 64 518.942 65.3706 517.007 67.8885Z" fill="#FFBDF2"/>
<path fill-rule="evenodd" clip-rule="evenodd" d="M238.946 68.4205C236.823 71.1657 236 74.3857 236 76C236 79.1726 236.822 82.878 238.694 85.6008C240.354 88.0154 243.027 90 248 90C255.53 90 258.434 87.5959 259.806 85.6008C261.484 83.1592 262 79.7106 262 76C262 74.0975 261.312 70.9944 259.315 68.4982C257.526 66.2628 254.298 64 248 64C243.744 64 240.898 65.8974 238.946 68.4205ZM229.454 61.0795C233.302 56.1026 239.456 52 248 52C257.702 52 264.474 55.7372 268.685 61.0018C272.688 66.0056 274 71.9025 274 76C274 80.2894 273.516 86.8408 269.694 92.3992C265.566 98.4041 258.47 102 248 102C238.973 102 232.646 97.9846 228.806 92.3992C225.178 87.122 224 80.8274 224 76C224 71.6143 225.777 65.8343 229.454 61.0795Z" fill="#FFBDF2"/>
<path fill-rule="evenodd" clip-rule="evenodd" d="M396.946 68.4205C394.823 71.1657 394 74.3857 394 76C394 79.1726 394.822 82.878 396.694 85.6008C398.354 88.0154 401.027 90 406 90C413.53 90 416.434 87.5959 417.806 85.6008C419.484 83.1592 420 79.7106 420 76C420 74.0975 419.312 70.9944 417.315 68.4982C415.526 66.2628 412.298 64 406 64C401.744 64 398.898 65.8974 396.946 68.4205ZM387.454 61.0795C391.302 56.1026 397.456 52 406 52C415.702 52 422.474 55.7372 426.685 61.0018C430.688 66.0056 432 71.9025 432 76C432 80.2894 431.516 86.8408 427.694 92.3992C423.566 98.4041 416.47 102 406 102C396.973 102 390.646 97.9846 386.806 92.3992C383.178 87.122 382 80.8274 382 76C382 71.6143 383.777 65.8343 387.454 61.0795Z" fill="#FFBDF2"/>
<path fill-rule="evenodd" clip-rule="evenodd" d="M316.361 100.051L300.361 56.0506L311.639 51.9497L322.458 81.7012L334.485 53.6366L345.607 53.8642L355.869 80.8027L366.361 51.9497L377.639 56.0506L361.639 100.051L350.393 100.136L339.673 71.9953L327.515 100.364L316.361 100.051Z" fill="#FFBDF2"/>
<path fill-rule="evenodd" clip-rule="evenodd" d="M440 102V54H452V102H440Z" fill="#FFBDF2"/>
<path fill-rule="evenodd" clip-rule="evenodd" d="M466.399 55.0488C470.547 54.3728 474.514 54 476 54L476 66C476.011 66 475.952 66.0002 475.799 66.0076C475.657 66.0145 475.469 66.0259 475.235 66.043C474.768 66.0772 474.162 66.1307 473.45 66.2055C472.023 66.3551 470.227 66.5832 468.328 66.8926C464.304 67.5483 460.595 68.4502 458.655 69.4074C456.949 70.249 454.935 71.4734 453.451 72.7721C452.713 73.418 452.271 73.94 452.047 74.2878C451.979 74.3936 451.947 74.4574 451.936 74.4816C451.952 74.4403 452 74.2847 452 74.0267H440C440 69.2145 443.359 65.6577 445.549 63.7412C448.065 61.5399 451.051 59.7776 453.345 58.6458C457.041 56.8227 462.332 55.7113 466.399 55.0488ZM451.932 74.4927C451.932 74.4928 451.933 74.4891 451.936 74.4816C451.934 74.489 451.932 74.4927 451.932 74.4927Z" fill="#FFBDF2"/>
</svg>
