<svg width="496" height="144" viewBox="0 0 496 144" fill="none" xmlns="http://www.w3.org/2000/svg">
<rect width="496" height="144" rx="72" fill="#828288" fill-opacity="0.3"/>
<path fill-rule="evenodd" clip-rule="evenodd" d="M114 70H68V58H114V70Z" fill="#53FFCB"/>
<path fill-rule="evenodd" clip-rule="evenodd" d="M110 90H64V78H110V90Z" fill="#53FFCB"/>
<path fill-rule="evenodd" clip-rule="evenodd" d="M152 100V56H164V100H152Z" fill="#53FFCB"/>
<path fill-rule="evenodd" clip-rule="evenodd" d="M163.991 74.1743C163.989 74.1737 164 74.1155 164 74H152C152 70.5823 153.644 67.6633 155.279 65.5784C156.996 63.3892 159.239 61.4293 161.601 59.8057C166.167 56.6668 172.349 54 178 54C183.628 54 188.29 56.1706 191.485 59.7644C194.581 63.2477 196 67.7224 196 72.0008V100.001H184V72.0008C184 70.2792 183.419 68.7534 182.515 67.7364C181.71 66.8298 180.372 66 178 66C175.651 66 171.833 67.3332 168.399 69.6943C166.761 70.8207 165.504 71.9858 164.721 72.9841C164.095 73.7819 163.998 74.1757 163.991 74.1743Z" fill="#53FFCB"/>
<path fill-rule="evenodd" clip-rule="evenodd" d="M332 56L332 100L320 100L320 56L332 56Z" fill="#53FFCB"/>
<path fill-rule="evenodd" clip-rule="evenodd" d="M316.527 86.4757C319.463 84.2407 320 82.2975 320 82L332 82C332 87.7025 328.085 92.7593 323.795 96.0243C319.229 99.4995 312.972 102 306 102C300.372 102 295.71 99.8294 292.515 96.2356C289.419 92.7523 288 88.2776 288 83.9992L288 55.9992L300 55.9992L300 83.9992C300 85.7208 300.581 87.2466 301.485 88.2636C302.29 89.1702 303.628 90 306 90C310.124 90 313.867 88.5005 316.527 86.4757Z" fill="#53FFCB"/>
<path fill-rule="evenodd" clip-rule="evenodd" d="M126 52L126 44L138 44L138 52L126 52Z" fill="#53FFCB"/>
<path fill-rule="evenodd" clip-rule="evenodd" d="M126 100L126 56L138 56L138 100L126 100Z" fill="#53FFCB"/>
<path fill-rule="evenodd" clip-rule="evenodd" d="M262 102V44H274V102H262Z" fill="#53FFCB"/>
<path fill-rule="evenodd" clip-rule="evenodd" d="M374 102V44H386V102H374Z" fill="#53FFCB"/>
<path fill-rule="evenodd" clip-rule="evenodd" d="M343.493 60.5748C347.058 55.9383 352.666 52 360 52C369.676 52 376.634 54.9063 380.982 60.1852C385.146 65.2408 386 71.3949 386 76C386 81.9614 384.432 88.4825 380.104 93.6172C375.626 98.9283 368.831 102 360 102C352.028 102 346.14 98.526 342.508 93.0782C339.106 87.9755 338 81.6491 338 76C338 70.8863 340 65.1185 343.493 60.5748ZM353.007 67.8885C351 70.4992 350 73.7315 350 76C350 80.3509 350.894 84.0245 352.492 86.4218C353.86 88.474 355.972 90 360 90C365.879 90 369.084 88.0717 370.929 85.8828C372.923 83.5175 374 80.0386 374 76C374 72.6051 373.321 69.7592 371.72 67.8148C370.302 66.0937 367.259 64 360 64C357.334 64 354.942 65.3706 353.007 67.8885Z" fill="#53FFCB"/>
<path fill-rule="evenodd" clip-rule="evenodd" d="M204 78C204 66.6863 214.686 54 230 54C236.551 54 241.852 56.7432 245.654 59.8596C249.406 62.9352 252.019 66.6209 253.367 69.3167L242.633 74.6833C241.981 73.3791 240.394 71.0648 238.046 69.1404C235.748 67.2568 233.049 66 230 66C221.314 66 216 73.3137 216 78C216 80.6816 217.063 84.3314 219.407 87.2164C221.599 89.9151 224.933 92 230 92C238.534 92 241.925 87.0314 242.429 85.7717L253.571 90.2283C251.408 95.6353 243.866 104 230 104C221.067 104 214.401 100.085 210.093 94.7836C205.937 89.6686 204 83.3184 204 78Z" fill="#53FFCB"/>
<path fill-rule="evenodd" clip-rule="evenodd" d="M66.1792 98.5449L80.1792 42.5449L91.8209 45.4553L77.8209 101.455L66.1792 98.5449Z" fill="#53FFCB"/>
<path fill-rule="evenodd" clip-rule="evenodd" d="M86.1792 98.5449L100.179 42.5449L111.821 45.4553L97.8209 101.455L86.1792 98.5449Z" fill="#53FFCB"/>
<path fill-rule="evenodd" clip-rule="evenodd" d="M398.036 59.6749C402.283 54.9449 408.805 52 418 52C426.628 52 432.631 55.2043 436.183 60.3347C439.455 65.0608 440 70.5198 440 74V80H404.193C404.453 81.4925 405.026 83.4012 406.194 85.1008C407.744 87.3552 410.829 90 418 90C424.2 90 427.164 86.255 428.633 83.3167L439.367 88.6833C436.836 93.745 430.572 102 418 102C407.171 102 400.256 97.6448 396.306 91.8992C392.626 86.5465 392 80.701 392 78L392 77.97C392 77.0662 392 75.3517 392.245 73.2918C392.682 69.6094 393.968 64.2048 398.036 59.6749ZM406.701 68H426.812C426.663 67.7067 426.498 67.4276 426.317 67.1653C425.369 65.7957 423.372 64 418 64C411.524 64 408.514 65.9667 406.964 67.6926C406.874 67.7933 406.786 67.8958 406.701 68Z" fill="#53FFCB"/>
</svg>
